<svg width="476" height="476" viewBox="0 0 476 476" fill="none" xmlns="http://www.w3.org/2000/svg">
<circle cx="237.652" cy="237.888" r="224.416" fill="#8E8E8E" stroke="#828282" stroke-width="26"/>
<path fill-rule="evenodd" clip-rule="evenodd" d="M270.77 63.9159C273.204 66.28 274.651 69.4668 274.056 73.2365C272.559 82.7169 269.339 92.0904 266.544 99.0194C265.945 100.502 265.363 101.88 264.818 103.131C267.574 107.898 269.151 113.432 269.151 119.334C269.151 137.238 254.637 151.753 236.732 151.753C218.828 151.753 204.314 137.238 204.314 119.334C204.314 112.641 206.342 106.422 209.817 101.257C209.438 100.146 209.038 98.9589 208.623 97.7149C206.231 90.5374 203.331 81.3628 201.386 73.5828C200.464 69.8915 202.014 66.7763 204.323 64.587C206.505 62.5176 209.589 60.9948 212.877 59.8511C219.529 57.5364 228.473 56.2829 237.244 56.0989C246.006 55.9151 255.054 56.7883 261.887 59.0225C265.28 60.1318 268.475 61.687 270.77 63.9159ZM266.153 71.9888C264.796 80.5829 261.84 89.2828 259.164 95.9288C253.34 90.3458 245.437 86.9152 236.732 86.9152C228.831 86.9152 221.59 89.7419 215.965 94.4393C213.644 87.4434 210.952 78.8599 209.148 71.6425C209.146 71.6358 209.144 71.6285 209.142 71.6206C209.103 71.4842 209.014 71.1637 209.828 70.3919C210.815 69.4556 212.67 68.3935 215.506 67.4068C221.099 65.4605 229.14 64.2707 237.412 64.0971C245.694 63.9234 253.749 64.7785 259.401 66.6264C262.251 67.5582 264.144 68.6326 265.197 69.6552C266.111 70.5427 266.273 71.2295 266.153 71.9888ZM242.241 112.709L237.531 98.2148L232.821 112.709H217.581L229.911 121.668L225.201 136.162L237.531 127.204L249.861 136.162L245.151 121.668L257.481 112.709H242.241Z" fill="#828282"/>
<path fill-rule="evenodd" clip-rule="evenodd" d="M287.141 214.843H188.163L118.031 161.388V102.941L237.652 194.118L357.273 102.941V161.388L287.141 214.843ZM118.031 187.536L153.857 214.843H118.031V187.536ZM156.255 299.214H118.031V328.525L237.652 419.702L357.273 328.525V299.214H319.049L237.652 361.255L156.255 299.214ZM357.273 187.536V214.843H321.447L357.273 187.536ZM237.652 337.16L287.436 299.214H187.868L237.652 337.16Z" fill="#828282"/>
<path d="M93.3452 244.379L97.5609 240.131H114.519V272.1H100.403V248.595H93.3452V244.379ZM93.3452 274.048H121.577V282.512H93.3452V274.048Z" fill="#828282"/>
<path d="M170.536 274.048L162.073 282.512H145.849V274.048H156.42V240.131H162.073L170.536 248.595V274.048ZM143.678 282.512H138.057L129.562 274.048V248.595L138.057 240.131H154.249V248.595H143.678V282.512Z" fill="#828282"/>
<path d="M228.853 268.332H233.644V276.603H228.853V282.512H215.28V240.131H228.853V268.332ZM191.359 268.747L213.044 243.006V259.773L205.348 268.332H213.044V276.603H194.713L191.359 268.747Z" fill="#828282"/>
<path d="M279.824 274.048L271.361 282.512H255.137V274.048H265.708V240.131H271.361L279.824 248.595V274.048ZM252.965 282.512H247.344L238.849 274.048V248.595L247.344 240.131H263.536V248.595H252.965V282.512Z" fill="#828282"/>
<path d="M304.767 244.379L308.983 240.131H325.941V272.1H311.825V248.595H304.767V244.379ZM304.767 274.048H332.999V282.512H304.767V274.048Z" fill="#828282"/>
<path d="M381.958 274.048L373.495 282.512H357.271V274.048H367.842V240.131H373.495L381.958 248.595V274.048ZM355.099 282.512H349.478L340.983 274.048V248.595L349.478 240.131H365.67V248.595H355.099V282.512Z" fill="#828282"/>
<circle cx="184.036" cy="260.554" r="3.4841" fill="#828282"/>
<circle cx="295.538" cy="260.554" r="3.4841" fill="#828282"/>
</svg>
