<svg width="476" height="476" viewBox="0 0 476 476" fill="none" xmlns="http://www.w3.org/2000/svg">
<circle cx="237.589" cy="237.888" r="224.416" fill="url(#paint0_linear)" stroke="#FFC702" stroke-width="26"/>
<path fill-rule="evenodd" clip-rule="evenodd" d="M270.707 63.9159C273.142 66.28 274.588 69.4668 273.993 73.2365C272.496 82.7169 269.277 92.0904 266.481 99.0194C265.882 100.502 265.3 101.88 264.755 103.131C267.511 107.898 269.088 113.432 269.088 119.334C269.088 137.238 254.574 151.753 236.669 151.753C218.765 151.753 204.251 137.238 204.251 119.334C204.251 112.641 206.279 106.422 209.754 101.257C209.376 100.146 208.975 98.9589 208.561 97.7149C206.168 90.5374 203.269 81.3628 201.324 73.5828C200.401 69.8915 201.951 66.7763 204.26 64.587C206.442 62.5176 209.526 60.9948 212.814 59.8511C219.466 57.5364 228.41 56.2829 237.181 56.0989C245.943 55.9151 254.991 56.7883 261.824 59.0225C265.217 60.1318 268.412 61.687 270.707 63.9159ZM266.091 71.9888C264.734 80.5829 261.777 89.2828 259.101 95.9288C253.277 90.3458 245.374 86.9152 236.669 86.9152C228.768 86.9152 221.527 89.7419 215.902 94.4393C213.581 87.4434 210.889 78.8599 209.085 71.6425L209.082 71.6321L209.079 71.6206C209.041 71.4842 208.951 71.1637 209.765 70.3919C210.752 69.4556 212.607 68.3935 215.443 67.4068C221.037 65.4605 229.077 64.2707 237.349 64.0971C245.632 63.9234 253.686 64.7785 259.338 66.6264C262.188 67.5582 264.081 68.6326 265.134 69.6552C266.048 70.5427 266.21 71.2295 266.091 71.9888ZM242.178 112.709L237.468 98.2148L232.758 112.709H217.518L229.848 121.668L225.138 136.162L237.468 127.204L249.798 136.162L245.088 121.668L257.418 112.709H242.178Z" fill="#FFC702"/>
<path fill-rule="evenodd" clip-rule="evenodd" d="M287.078 214.843H188.1L117.968 161.388V102.941L237.589 194.118L357.21 102.941V161.388L287.078 214.843ZM117.968 187.536L153.794 214.843H117.968V187.536ZM156.192 299.214H117.968V328.525L237.589 419.702L357.21 328.525V299.214H318.986L237.589 361.255L156.192 299.214ZM357.21 187.536V214.843H321.384L357.21 187.536ZM237.589 337.16L287.373 299.214H187.805L237.589 337.16Z" fill="#FFC702"/>
<path d="M93.2823 244.379L97.498 240.131H114.456V272.1H100.34V248.595H93.2823V244.379ZM93.2823 274.048H121.514V282.512H93.2823V274.048Z" fill="#FFC702"/>
<path d="M170.474 274.048L162.01 282.512H145.786V274.048H156.358V240.131H162.01L170.474 248.595V274.048ZM143.615 282.512H137.994L129.499 274.048V248.595L137.994 240.131H154.186V248.595H143.615V282.512Z" fill="#FFC702"/>
<path d="M228.79 268.332H233.581V276.603H228.79V282.512H215.217V240.131H228.79V268.332ZM191.296 268.747L212.981 243.006V259.773L205.285 268.332H212.981V276.603H194.65L191.296 268.747Z" fill="#FFC702"/>
<path d="M279.761 274.048L271.298 282.512H255.074V274.048H265.645V240.131H271.298L279.761 248.595V274.048ZM252.902 282.512H247.282L238.786 274.048V248.595L247.282 240.131H263.474V248.595H252.902V282.512Z" fill="#FFC702"/>
<path d="M304.704 244.379L308.92 240.131H325.878V272.1H311.762V248.595H304.704V244.379ZM304.704 274.048H332.936V282.512H304.704V274.048Z" fill="#FFC702"/>
<path d="M381.895 274.048L373.432 282.512H357.208V274.048H367.779V240.131H373.432L381.895 248.595V274.048ZM355.036 282.512H349.416L340.92 274.048V248.595L349.416 240.131H365.607V248.595H355.036V282.512Z" fill="#FFC702"/>
<circle cx="183.973" cy="260.554" r="3.4841" fill="#FFC702"/>
<circle cx="295.475" cy="260.554" r="3.4841" fill="#FFC702"/>
<defs>
<linearGradient id="paint0_linear" x1="43.3397" y1="39.0955" x2="422.75" y2="420.778" gradientUnits="userSpaceOnUse">
<stop offset="0.519648" stop-color="#FFD702"/>
<stop offset="1" stop-color="#FFE602"/>
</linearGradient>
</defs>
</svg>
